<svg id="Capa_1" data-name="Capa 1" xmlns="http://www.w3.org/2000/svg" viewBox="0 0 170.08 53.93"><defs><style>.cls-1{fill:#1a171b;}</style></defs><path class="cls-1" d="M41.64,81.84a8,8,0,0,1,4-1,8.19,8.19,0,0,1,6.55,3.28l.74.89,7.28-6.59-.65-.81a16.08,16.08,0,0,0-6.16-4.72,20.12,20.12,0,0,0-8.21-1.62,19.77,19.77,0,0,0-9.38,2.22,16.73,16.73,0,0,0-6.6,6.21,18.11,18.11,0,0,0,0,18,16.69,16.69,0,0,0,6.6,6.22,19.74,19.74,0,0,0,9.38,2.22,20.29,20.29,0,0,0,8.21-1.62,16.22,16.22,0,0,0,6.17-4.73l.64-.81-7.28-6.59-.74.89a8.16,8.16,0,0,1-6.55,3.28,8,8,0,0,1-4-1A6.66,6.66,0,0,1,39,92.9a9.43,9.43,0,0,1,0-8.33A6.63,6.63,0,0,1,41.64,81.84Z" transform="translate(-26.82 -71.03)"/><path class="cls-1" d="M91.79,73.53a21.16,21.16,0,0,0-19,0,17.18,17.18,0,0,0,0,30.41,21.16,21.16,0,0,0,19,0,17.17,17.17,0,0,0,0-30.41Zm-5.72,22.1h0a7.75,7.75,0,0,1-7.51,0,6.88,6.88,0,0,1-2.63-2.74,9.21,9.21,0,0,1,0-8.31,6.81,6.81,0,0,1,2.63-2.74,7.68,7.68,0,0,1,7.51,0,6.9,6.9,0,0,1,2.64,2.74,9.3,9.3,0,0,1,0,8.31A7,7,0,0,1,86.07,95.63Z" transform="translate(-26.82 -71.03)"/><polygon class="cls-1" points="110.61 0.89 100.46 17.98 90.05 0.89 81.01 0.89 81.01 34.52 91.43 34.52 91.43 21.14 97.74 31.43 102.94 31.43 109.3 20.75 109.38 34.52 119.75 34.52 119.75 0.89 110.61 0.89"/><path class="cls-1" d="M189.23,81.87a4,4,0,0,1-3.5-.45,4.07,4.07,0,0,1-2-2.77,2.9,2.9,0,0,1-1.92-.41,2.84,2.84,0,0,1-1.41-2.71,4.59,4.59,0,0,1-.5-.24A3.1,3.1,0,0,1,178.4,72a20.82,20.82,0,0,0-6.5-1,20,20,0,0,0-9.47,2.23,17.16,17.16,0,0,0,0,30.41,21.14,21.14,0,0,0,18.94,0,16.81,16.81,0,0,0,9.1-15.2A17.54,17.54,0,0,0,189.23,81.87ZM178.29,92.62a6.93,6.93,0,0,1-2.64,2.75,7.73,7.73,0,0,1-7.5,0,7,7,0,0,1-2.64-2.75,9.3,9.3,0,0,1,0-8.31,7,7,0,0,1,2.64-2.74,7.73,7.73,0,0,1,7.5,0,6.9,6.9,0,0,1,2.64,2.74,9.21,9.21,0,0,1,0,8.31Z" transform="translate(-26.82 -71.03)"/><path class="cls-1" d="M191.31,99.9l2.08-.67s1.92.63,1.38,1.53-2.24,1.06-2.24,1.06S191.11,100.94,191.31,99.9Z" transform="translate(-26.82 -71.03)"/><path class="cls-1" d="M189.46,101.67s-1.33.55-1.23,1.23,1.08.94,1.29.88a11.44,11.44,0,0,0,1.11-.55s.55-.33-.18-1S189.69,101.57,189.46,101.67Z" transform="translate(-26.82 -71.03)"/><path class="cls-1" d="M196.25,102.6s-1.86.67-1.94.72a.82.82,0,0,0,.63,1.23,2,2,0,0,0,1.93-.54A1.35,1.35,0,0,0,196.25,102.6Z" transform="translate(-26.82 -71.03)"/><path class="cls-1" d="M29.54,124.28a5,5,0,0,1-2-1.88,5.54,5.54,0,0,1,0-5.46,5,5,0,0,1,2-1.88,6,6,0,0,1,2.86-.67,6.11,6.11,0,0,1,2.51.49,4.87,4.87,0,0,1,1.86,1.42L34.94,118a3.07,3.07,0,0,0-3.87-.83,2.54,2.54,0,0,0-1,1,3.2,3.2,0,0,0-.35,1.51,3.24,3.24,0,0,0,.35,1.52,2.52,2.52,0,0,0,1,1,3,3,0,0,0,1.48.36,3,3,0,0,0,2.39-1.19L36.77,123a4.77,4.77,0,0,1-1.86,1.42,6.11,6.11,0,0,1-2.51.49A6,6,0,0,1,29.54,124.28Z" transform="translate(-26.82 -71.03)"/><path class="cls-1" d="M38.05,114.59h2.87v7.88h4.85v2.28H38.05Z" transform="translate(-26.82 -71.03)"/><path class="cls-1" d="M48,123.72a4.71,4.71,0,0,1-1.25-3.5v-5.63h2.87v5.55c0,1.62.65,2.43,1.93,2.43s1.92-.81,1.92-2.43v-5.55h2.83v5.63a4.67,4.67,0,0,1-1.26,3.5A4.81,4.81,0,0,1,51.48,125,4.82,4.82,0,0,1,48,123.72Z" transform="translate(-26.82 -71.03)"/><path class="cls-1" d="M67.37,120.4a2.51,2.51,0,0,1,.5,1.56A2.33,2.33,0,0,1,66.79,124a5.46,5.46,0,0,1-3.1.73H58.2V114.59h5.2a5.11,5.11,0,0,1,3,.72,2.28,2.28,0,0,1,1,1.94,2.48,2.48,0,0,1-.35,1.3,2.53,2.53,0,0,1-1,.9A2.89,2.89,0,0,1,67.37,120.4Zm-6.32-3.73v2h2c1,0,1.45-.33,1.45-1s-.48-1-1.45-1Zm3.91,5c0-.69-.5-1-1.5-1H61.05v2.07h2.41C64.46,122.68,65,122.33,65,121.65Z" transform="translate(-26.82 -71.03)"/><path class="cls-1" d="M73.58,114.59h4.81a6.67,6.67,0,0,1,3,.63,4.66,4.66,0,0,1,2,1.77,5.43,5.43,0,0,1,0,5.37,4.79,4.79,0,0,1-2,1.77,6.81,6.81,0,0,1-3,.62H73.58Zm4.69,7.87a3,3,0,0,0,2.1-.74,2.71,2.71,0,0,0,.79-2,2.67,2.67,0,0,0-.79-2,2.94,2.94,0,0,0-2.1-.75H76.46v5.58Z" transform="translate(-26.82 -71.03)"/><path class="cls-1" d="M93.72,122.53v2.22H85.57V114.59h8v2.22H88.41v1.72h4.52v2.14H88.41v1.86Z" transform="translate(-26.82 -71.03)"/><path class="cls-1" d="M101.74,124.28a5,5,0,0,1-2-1.88,5.47,5.47,0,0,1,0-5.46,5,5,0,0,1,2-1.88,6,6,0,0,1,2.87-.67,6.14,6.14,0,0,1,2.51.49A4.91,4.91,0,0,1,109,116.3L107.15,118a3,3,0,0,0-2.4-1.19,3,3,0,0,0-1.47.36,2.48,2.48,0,0,0-1,1,3.09,3.09,0,0,0-.36,1.51,3.13,3.13,0,0,0,.36,1.52,2.46,2.46,0,0,0,1,1,3,3,0,0,0,1.47.36,3,3,0,0,0,2.4-1.19L109,123a4.81,4.81,0,0,1-1.85,1.42,6.14,6.14,0,0,1-2.51.49A6,6,0,0,1,101.74,124.28Z" transform="translate(-26.82 -71.03)"/><path class="cls-1" d="M112.26,124.27a5.16,5.16,0,0,1-2-1.88,5.2,5.2,0,0,1,2-7.32,6.5,6.5,0,0,1,5.79,0,5.18,5.18,0,0,1,2,1.89,5.18,5.18,0,0,1-2,7.31,6.5,6.5,0,0,1-5.79,0Zm4.29-2.06a2.7,2.7,0,0,0,1-1,3.13,3.13,0,0,0,.36-1.52,3.09,3.09,0,0,0-.36-1.51,2.63,2.63,0,0,0-2.38-1.39,2.75,2.75,0,0,0-1.4.36,2.63,2.63,0,0,0-1,1,3,3,0,0,0-.37,1.51,3,3,0,0,0,.37,1.52,2.6,2.6,0,0,0,1,1,2.88,2.88,0,0,0,2.79,0Z" transform="translate(-26.82 -71.03)"/><path class="cls-1" d="M124.51,124.28a5.1,5.1,0,0,1-2-1.88,5.54,5.54,0,0,1,0-5.46,5.1,5.1,0,0,1,2-1.88,6,6,0,0,1,2.86-.67,6.11,6.11,0,0,1,2.51.49,4.87,4.87,0,0,1,1.86,1.42L129.91,118a3,3,0,0,0-2.39-1.19,3,3,0,0,0-1.47.36,2.48,2.48,0,0,0-1,1,3.09,3.09,0,0,0-.36,1.51,3.13,3.13,0,0,0,.36,1.52,2.46,2.46,0,0,0,1,1,3.06,3.06,0,0,0,3.86-.83l1.83,1.66a4.77,4.77,0,0,1-1.86,1.42,6.11,6.11,0,0,1-2.51.49A6,6,0,0,1,124.51,124.28Z" transform="translate(-26.82 -71.03)"/><path class="cls-1" d="M133,114.59h2.87v10.16H133Z" transform="translate(-26.82 -71.03)"/><path class="cls-1" d="M147.6,114.59v10.16h-2.36l-4.49-5.41v5.41h-2.81V114.59h2.36l4.49,5.41v-5.41Z" transform="translate(-26.82 -71.03)"/><path class="cls-1" d="M157.79,122.53v2.22h-8.16V114.59h8v2.22h-5.12v1.72H157v2.14h-4.51v1.86Z" transform="translate(-26.82 -71.03)"/><path class="cls-1" d="M163.82,122.05h-1.56v2.7h-2.88V114.59H164a5.85,5.85,0,0,1,2.39.46,3.56,3.56,0,0,1,.13,6.51l2.19,3.19h-3.07Zm1.37-4.8a2,2,0,0,0-1.34-.39h-1.59v3h1.59a2.06,2.06,0,0,0,1.34-.38,1.37,1.37,0,0,0,.45-1.1A1.38,1.38,0,0,0,165.19,117.25Z" transform="translate(-26.82 -71.03)"/><path class="cls-1" d="M172.35,124.27a5.28,5.28,0,0,1-2-7.31,5.18,5.18,0,0,1,2-1.89,6.5,6.5,0,0,1,5.79,0,5.29,5.29,0,0,1,2,7.32,5.09,5.09,0,0,1-2,1.88,6.5,6.5,0,0,1-5.79,0Zm4.29-2.06a2.6,2.6,0,0,0,1-1,3,3,0,0,0,.37-1.52,3,3,0,0,0-.37-1.51,2.63,2.63,0,0,0-1-1,2.88,2.88,0,0,0-2.79,0,2.73,2.73,0,0,0-1,1,3.09,3.09,0,0,0-.36,1.51,3.13,3.13,0,0,0,.36,1.52,2.7,2.7,0,0,0,1,1,2.88,2.88,0,0,0,2.79,0Z" transform="translate(-26.82 -71.03)"/><path class="cls-1" d="M183.57,124.65a6,6,0,0,1-1.88-.81l.94-2.12a6.54,6.54,0,0,0,3.35,1c1.1,0,1.66-.28,1.66-.83a.68.68,0,0,0-.48-.64,9,9,0,0,0-1.51-.45,13.77,13.77,0,0,1-1.92-.53,3.31,3.31,0,0,1-1.32-.9,2.46,2.46,0,0,1-.55-1.69,2.89,2.89,0,0,1,.51-1.67,3.38,3.38,0,0,1,1.51-1.18,6.11,6.11,0,0,1,2.48-.44,8.69,8.69,0,0,1,2,.22,5.71,5.71,0,0,1,1.71.67l-.88,2.13a5.86,5.86,0,0,0-2.82-.79,2.31,2.31,0,0,0-1.24.26.76.76,0,0,0-.39.66.66.66,0,0,0,.46.61,9.56,9.56,0,0,0,1.49.42,13.2,13.2,0,0,1,1.93.53,3.46,3.46,0,0,1,1.32.9,2.41,2.41,0,0,1,.56,1.67,2.88,2.88,0,0,1-.51,1.66,3.46,3.46,0,0,1-1.53,1.18A6,6,0,0,1,186,125,9.57,9.57,0,0,1,183.57,124.65Z" transform="translate(-26.82 -71.03)"/></svg>